<svg xmlns="http://www.w3.org/2000/svg" viewBox="0 0 64 64" fill="none">
  <rect width="64" height="64" rx="14" fill="#0f0f11"/>
  <path d="M6 50 L24 18 L33 34 L40 24 L58 50 Z" fill="#8a97a0"/>
  <path d="M24 18 L33 34 L28 42 L18 30 Z" fill="#f6f4ef" opacity="0.9"/>
  <path d="M40 24 L58 50 L44 50 L36 36 Z" fill="#b8c1c6"/>
  <path d="M14 52 C24 46 26 40 30 40 C36 40 36 30 44 27 L50 24" stroke="#f2b705" stroke-width="5" stroke-linecap="round" fill="none"/>
  <path d="M14 52 C24 46 26 40 30 40 C36 40 36 30 44 27 L50 24" stroke="#17130a" stroke-width="1.3" stroke-linecap="round" stroke-dasharray="2 4" fill="none"/>
</svg>
